<?xml version="1.0" encoding="UTF-8" standalone="no"?>
<!DOCTYPE svg PUBLIC "-//W3C//DTD SVG 1.1//EN" "http://www.w3.org/Graphics/SVG/1.1/DTD/svg11.dtd">
<svg version="1.1" xmlns="http://www.w3.org/2000/svg" xmlns:xlink="http://www.w3.org/1999/xlink" preserveAspectRatio="xMidYMid meet" viewBox="0 0 640 640" width="50" height="50"><defs><path d="M67.19 424.75L68.08 303.89L137.81 303.89L137.81 424.75L192.93 424.75L192.93 159.87L137.81 159.87L137.81 259.9L68.08 259.9L67.19 161.26L15.23 161.26L15.23 424.75L67.19 424.75Z" id="acLqCB4gl"></path><path d="M78.11 433.68L79 312.82L148.72 312.82L148.72 433.68L203.84 433.68L203.84 168.8L148.72 168.8L148.72 268.83L79 268.83L78.11 170.19L26.15 170.19L26.15 433.68L78.11 433.68Z" id="d1ql6LYpK"></path><path d="M284.96 159.87L284.96 254.23L332.54 159.87L395.98 159.87L332.54 275.92L395.98 424.75L332.54 424.75L284.96 301.24L284.96 424.75L225.96 424.75L225.96 159.87L284.96 159.87Z" id="a2kXpv6oY"></path><path d="M295.18 168.8L295.18 263.16L342.76 168.8L406.2 168.8L342.76 284.85L406.2 433.68L342.76 433.68L295.18 310.18L295.18 433.68L236.17 433.68L236.17 168.8L295.18 168.8Z" id="b8vOST9KR"></path><path d="M467.77 159.87L544.96 304.42L542.38 159.87L604.84 159.87L604.84 426.49L553.95 424.75L475.64 287.38L480.54 424.75L423.6 424.75L417.47 159.87L467.77 159.87Z" id="b1uySorOfa"></path><path d="M487.7 167.94L564.89 312.48L562.31 167.94L624.77 167.94L624.77 434.55L573.88 432.82L495.57 295.44L500.47 432.82L443.53 432.82L437.4 167.94L487.7 167.94Z" id="d1WcD8G2ld"></path></defs><g><g><g><use xlink:href="#acLqCB4gl" opacity="1" fill="#4a4a4a" fill-opacity="1"></use><g><use xlink:href="#acLqCB4gl" opacity="1" fill-opacity="0" stroke="#090909" stroke-width="1" stroke-opacity="1"></use></g></g><g><use xlink:href="#d1ql6LYpK" opacity="1" fill="#505050" fill-opacity="0.42"></use><g><use xlink:href="#d1ql6LYpK" opacity="1" fill-opacity="0" stroke="#000000" stroke-width="1" stroke-opacity="1"></use></g></g><g><use xlink:href="#a2kXpv6oY" opacity="1" fill="#4a4a4a" fill-opacity="1"></use><g><use xlink:href="#a2kXpv6oY" opacity="1" fill-opacity="0" stroke="#0c0909" stroke-width="1" stroke-opacity="1"></use></g></g><g><use xlink:href="#b8vOST9KR" opacity="1" fill="#4f4f4f" fill-opacity="0.42"></use><g><use xlink:href="#b8vOST9KR" opacity="1" fill-opacity="0" stroke="#0c0909" stroke-width="1" stroke-opacity="1"></use></g></g><g><use xlink:href="#b1uySorOfa" opacity="1" fill="#4a4a4a" fill-opacity="1"></use><g><use xlink:href="#b1uySorOfa" opacity="1" fill-opacity="0" stroke="#0c0909" stroke-width="1" stroke-opacity="1"></use></g></g><g><use xlink:href="#d1WcD8G2ld" opacity="1" fill="#4f4f4f" fill-opacity="0.42"></use><g><use xlink:href="#d1WcD8G2ld" opacity="1" fill-opacity="0" stroke="#0c0909" stroke-width="1" stroke-opacity="1"></use></g></g></g></g></svg>