<?xml version="1.0" encoding="UTF-8" standalone="no"?>
<!DOCTYPE svg PUBLIC "-//W3C//DTD SVG 1.1//EN" "http://www.w3.org/Graphics/SVG/1.1/DTD/svg11.dtd">
<svg version="1.1" xmlns="http://www.w3.org/2000/svg" xmlns:xlink="http://www.w3.org/1999/xlink" preserveAspectRatio="xMidYMid meet" viewBox="0 0 640 640" width="50" height="50"><defs><path d="M82.45 424.75L82.45 320L131.32 320L131.32 424.75L196.73 424.75L196.73 161.26L131.32 159.87L131.32 253.93L82.45 253.93L82.45 161.26L13.52 161.26L13.52 426.49L82.45 424.75Z" id="g2Tt6zCLx"></path><path d="M95.72 436.24L95.72 337.77L151.38 337.77L151.38 436.24L212.99 436.24L212.99 172.75L151.38 171.37L151.38 271.39L95.72 271.39L95.72 172.75L31.38 172.75L31.38 437.11L95.72 436.24Z" id="eONanYsf5"></path><path d="M284.96 159.87L284.96 254.23L332.54 159.87L395.98 159.87L332.54 275.92L395.98 424.75L332.54 424.75L284.96 301.24L284.96 424.75L225.96 424.75L225.96 159.87L284.96 159.87Z" id="d1uEuvyKlv"></path><path d="M300.85 171.8L300.85 266.16L348.43 171.8L411.87 171.8L348.43 287.84L411.87 436.68L348.43 436.68L300.85 313.17L300.85 436.68L241.85 436.68L241.85 171.8L300.85 171.8Z" id="g2byLZMUAD"></path><path d="M467.77 159.87L544.96 304.42L542.38 159.87L604.84 159.87L604.84 426.49L553.95 424.75L475.64 287.38L480.54 424.75L423.6 424.75L417.47 159.87L467.77 159.87Z" id="aQLwIBbbo"></path><path d="M488.41 170.62L565.6 315.16L563.02 170.62L625.48 170.62L625.48 437.23L574.59 436.36L496.28 298.12L501.18 435.5L444.24 435.5L438.11 170.62L488.41 170.62Z" id="bt7xOMXRk"></path></defs><g><g><g><use xlink:href="#g2Tt6zCLx" opacity="1" fill="#4a4a4a" fill-opacity="1"></use><g><use xlink:href="#g2Tt6zCLx" opacity="1" fill-opacity="0" stroke="#090909" stroke-width="1" stroke-opacity="1"></use></g></g><g><use xlink:href="#eONanYsf5" opacity="1" fill="#4f4f4f" fill-opacity="0.42"></use><g><use xlink:href="#eONanYsf5" opacity="1" fill-opacity="0" stroke="#000000" stroke-width="1" stroke-opacity="1"></use></g></g><g><use xlink:href="#d1uEuvyKlv" opacity="1" fill="#4a4a4a" fill-opacity="1"></use><g><use xlink:href="#d1uEuvyKlv" opacity="1" fill-opacity="0" stroke="#0c0909" stroke-width="1" stroke-opacity="1"></use></g></g><g><use xlink:href="#g2byLZMUAD" opacity="1" fill="#4f4f4f" fill-opacity="0.42"></use><g><use xlink:href="#g2byLZMUAD" opacity="1" fill-opacity="0" stroke="#0c0909" stroke-width="1" stroke-opacity="1"></use></g></g><g><use xlink:href="#aQLwIBbbo" opacity="1" fill="#4a4a4a" fill-opacity="1"></use><g><use xlink:href="#aQLwIBbbo" opacity="1" fill-opacity="0" stroke="#0c0909" stroke-width="1" stroke-opacity="1"></use></g></g><g><use xlink:href="#bt7xOMXRk" opacity="1" fill="#4f4f4f" fill-opacity="0.42"></use><g><use xlink:href="#bt7xOMXRk" opacity="1" fill-opacity="0" stroke="#0c0909" stroke-width="1" stroke-opacity="1"></use></g></g></g></g></svg>